{"title":"Foxcatcher(2014)MPEG-4[DaScubaDude]","uid":14580670,"size":1346458757,"categoryP":"video","categoryS":"movies","magnet":"?xt=urn:btih:43af68ee5e399f85a33a8a8dc8d25778f786b2f4&amp;dn=Foxcatcher%282014%29MPEG-4%5BDaScubaDude%5D&amp;tr=udp%3A%2F%2Ftracker.leechers-paradise.org%3A6969&amp;tr=udp%3A%2F%2Fzer0day.ch%3A1337&amp;tr=udp%3A%2F%2Fopen.demonii.com%3A1337&amp;tr=udp%3A%2F%2Ftracker.coppersurfer.tk%3A6969&amp;tr=udp%3A%2F%2Fexodus.desync.com%3A6969","seeders":1,"leechers":0,"uploader":"dascuba","files":1,"time":1462871917,"description":"Foxcatcher (2014)\r\nR | 2h 14min | Biography, Drama, Sport | 16 January 2015 (USA)\r\nMark and Dave Schultz, U.S. Olympic Wrestling champions, join Team Foxcatcher led by multimillionaire John E. du Pont as they train for the 1988 games in Seoul - but John's emotional self-destruction threatens to consume them all.\r\nDirector: Bennett Miller\r\nWriters: E. Max Frye, Dan Futterman\r\nStars: Steve Carell, Channing Tatum, Mark Ruffalo |\r\n\r\nGeneral\r\nComplete name                            : FoxcatcherFOXCATCHER_Title20.mp4\r\nFormat                                   : MPEG-4\r\nFormat profile                           : Base Media\r\nCodec ID                                 : isom (isom/iso2/avc1/mp41)\r\nFile size                                : 1.25 GiB\r\nDuration                                 : 2h 14mn\r\nOverall bit rate                         : 1 337 Kbps\r\nMovie name                               : FOXCATCHER\r\nGenre                                    : Drama\r\nWriting application                      : Lavf54.6.100\r\n\r\nVideo\r\nID                                       : 1\r\nFormat                                   : AVC\r\nFormat/Info                              : Advanced Video Codec\r\nFormat profile                           :   \r\nFormat settings, CABAC                   : No\r\nFormat settings, ReFrames                : 6 frames\r\nCodec ID                                 : avc1\r\nCodec ID/Info                            : Advanced Video Coding\r\nDuration                                 : 2h 14mn\r\nBit rate                                 : 1 202 Kbps\r\nWidth                                    : 720 pixels\r\nHeight                                   : 404 pixels\r\nDisplay aspect ratio                     : 16:9\r\nFrame rate mode                          : Constant\r\nFrame rate                               : 29.970 (30000/1001) fps\r\nColor space                              : YUV\r\nChroma subsampling                       : 4:2:0\r\nBit depth                                : 8 bits\r\nScan type                                : Progressive\r\nBits/(Pixel*Frame)                       : 0.138\r\nStream size                              : 1.13 GiB (90%)\r\n\r\nAudio\r\nID                                       : 2\r\nFormat                                   : AAC\r\nFormat/Info                              : Advanced Audio Codec\r\nFormat profile                           : LC\r\nCodec ID                                 : 40\r\nDuration                                 : 2h 14mn\r\nBit rate mode                            : Constant\r\nBit rate                                 : 128 Kbps\r\nChannel(s)                               : 2 channels\r\nChannel positions                        : Front: L R\r\nSampling rate                            : 44.1 KHz\r\nFrame rate                               : 43.066 fps (1024 spf)\r\nCompression mode                         : Lossy\r\nStream size                              : 123 MiB (10%)\r\nDefault                                  : Yes\r\nAlternate group                          : 1","torrent":{"xt":"urn:btih:43af68ee5e399f85a33a8a8dc8d25778f786b2f4","amp;dn":"Foxcatcher%282014%29MPEG-4%5BDaScubaDude%5D","amp;tr":["udp%3A%2F%2Ftracker.leechers-paradise.org%3A6969","udp%3A%2F%2Fzer0day.ch%3A1337","udp%3A%2F%2Fopen.demonii.com%3A1337","udp%3A%2F%2Ftracker.coppersurfer.tk%3A6969","udp%3A%2F%2Fexodus.desync.com%3A6969"],"infoHash":"43af68ee5e399f85a33a8a8dc8d25778f786b2f4","infoHashBuffer":{"type":"Buffer","data":[67,175,104,238,94,57,159,133,163,58,138,141,200,210,87,120,247,134,178,244]},"announce":[],"urlList":[]}}